<?xml version="1.0" encoding="UTF-8" standalone="no"?>
<svg
   xmlns:dc="http://purl.org/dc/elements/1.1/"
   xmlns:cc="http://creativecommons.org/ns#"
   xmlns:rdf="http://www.w3.org/1999/02/22-rdf-syntax-ns#"
   xmlns:svg="http://www.w3.org/2000/svg"
   xmlns="http://www.w3.org/2000/svg"
   xmlns:sodipodi="http://sodipodi.sourceforge.net/DTD/sodipodi-0.dtd"
   xmlns:inkscape="http://www.inkscape.org/namespaces/inkscape"
   version="1.1"
   x="0px"
   y="0px"
   viewBox="0 0 100 125"
   enable-background="new 0 0 100 100"
   xml:space="preserve"
   id="svg827"
   sodipodi:docname="browser.svg"
   inkscape:version="0.92.2 (5c3e80d, 2017-08-06)"><metadata
     id="metadata833"><rdf:RDF><cc:Work
         rdf:about=""><dc:format>image/svg+xml</dc:format><dc:type
           rdf:resource="http://purl.org/dc/dcmitype/StillImage" /></cc:Work></rdf:RDF></metadata><defs
     id="defs831" /><sodipodi:namedview
     pagecolor="#ffffff"
     bordercolor="#666666"
     borderopacity="1"
     objecttolerance="10"
     gridtolerance="10"
     guidetolerance="10"
     inkscape:pageopacity="0"
     inkscape:pageshadow="2"
     inkscape:window-width="1920"
     inkscape:window-height="1017"
     id="namedview829"
     showgrid="false"
     inkscape:zoom="6.544"
     inkscape:cx="50"
     inkscape:cy="62.5"
     inkscape:window-x="-8"
     inkscape:window-y="586"
     inkscape:window-maximized="1"
     inkscape:current-layer="svg827" /><path
     d="M 89.248462,22.55229 H 10.751538 c -4.0879384,0 -7.4336896,3.535206 -7.4336896,7.853102 v 1.961091 0 62.228125 c 0,4.317896 3.3457512,7.853102 7.4336896,7.853102 h 78.496924 c 4.08912,0 7.43369,-3.535206 7.43369,-7.853102 V 30.405392 c 0,-4.317896 -3.34457,-7.853102 -7.43369,-7.853102 z m -52.84065,4.07073 c 1.742012,0 3.153113,1.489231 3.153113,3.331733 0,1.841253 -1.411101,3.330484 -3.153113,3.330484 -1.742012,0 -3.151932,-1.489231 -3.151932,-3.330484 0,-1.841254 1.40992,-3.331733 3.151932,-3.331733 z m -10.626985,0 c 1.740831,0 3.153113,1.489231 3.153113,3.331733 0,1.841253 -1.412282,3.330484 -3.153113,3.330484 -1.742012,0 -3.153113,-1.489231 -3.153113,-3.330484 0,-1.841254 1.411101,-3.331733 3.153113,-3.331733 z m -10.626985,0 c 1.742012,0 3.151932,1.489231 3.151932,3.331733 0,1.841253 -1.411101,3.330484 -3.151932,3.330484 -1.740831,0 -3.153113,-1.489231 -3.153113,-3.330484 0,-1.841254 1.411101,-3.331733 3.153113,-3.331733 z m 76.801003,67.971588 c 0,1.550398 -1.239736,2.859873 -2.706383,2.859873 H 10.751538 c -1.466647,0 -2.7063831,-1.309475 -2.7063831,-2.859873 V 37.358464 H 91.954845 Z M 41.762668,83.80299 66.935576,68.452554 c 1.814103,-1.107249 1.814103,-2.921039 0,-4.028288 L 41.762668,49.076326 c -1.816467,-1.112242 -3.300841,-0.204722 -3.300841,2.009775 v 30.702121 c 0,2.218243 1.485556,3.124514 3.300841,2.014768 z"
     id="path825"
     inkscape:connector-curvature="0"
     style="stroke-width:1.21461225" /></svg>