<svg xmlns="http://www.w3.org/2000/svg"
	xmlns:xlink="http://www.w3.org/1999/xlink" version="1.1" x="0px" y="0px" viewBox="0 0 100 125" style="enable-background:new 0 0 100 100;" xml:space="preserve">
	<style type="text/css">
	.st0{fill-rule:evenodd;clip-rule:evenodd;}
	</style>
	<path class="st0" d="M82.7,89.7H17.3c-2.6,0-4.7-2.1-4.7-4.7V66.3c0-2.6,2.1-4.7,4.7-4.7c2.6,0,4.7,2.1,4.7,4.7v14h56v-14  c0-2.6,2.1-4.7,4.7-4.7c2.6,0,4.7,2.1,4.7,4.7V85C87.3,87.6,85.2,89.7,82.7,89.7z M53.4,55.6c-1.9,1.9-5,1.9-6.9,0L32.7,41.9  c-1.9-1.9-1.9-5,0-6.9c1.9-1.9,5-1.9,6.9,0l5.7,5.7V15c0-2.6,2.1-4.7,4.7-4.7c2.6,0,4.7,2.1,4.7,4.7v25.6l5.7-5.6  c1.9-1.9,5-1.9,6.9,0c1.9,1.9,1.9,5,0,6.9L53.4,55.6z"/>
</svg>
