<svg xmlns="http://www.w3.org/2000/svg" viewBox="0 0 67 83.75" x="0px" y="0px">
	<path fill="#000000" d="M304.654058,99.5175147 L344.343146,59.8284271 C347.46734,56.7042328 352.53266,56.7042328 355.656854,59.8284271 L360.171573,64.3431458 C363.295767,67.4673401 363.295767,72.5326599 360.171573,75.6568542 L320.482485,115.345942 C318.703785,107.484653 312.515347,101.296215 304.654058,99.5175147 Z M345.585786,65.5857864 L316.585786,94.5857864 C315.804738,95.366835 315.804738,96.633165 316.585786,97.4142136 C317.366835,98.1952621 318.633165,98.1952621 319.414214,97.4142136 L348.414214,68.4142136 C349.195262,67.633165 349.195262,66.366835 348.414214,65.5857864 C347.633165,64.8047379 346.366835,64.8047379 345.585786,65.5857864 Z M351.585786,71.5857864 L322.585786,100.585786 C321.804738,101.366835 321.804738,102.633165 322.585786,103.414214 C323.366835,104.195262 324.633165,104.195262 325.414214,103.414214 L354.414214,74.4142136 C355.195262,73.633165 355.195262,72.366835 354.414214,71.5857864 C353.633165,70.8047379 352.366835,70.8047379 351.585786,71.5857864 Z M299.304415,111.674171 L302.436326,103.17327 C309.875326,104.240837 315.759163,110.124674 316.82673,117.563674 L308.325829,120.695585 C306.947643,116.425738 303.574262,113.052357 299.304415,111.674171 Z M299.691411,123.876686 C298.959407,124.146372 298.137402,123.965829 297.585786,123.414214 L296.585786,122.414214 C296.034171,121.862598 295.853628,121.040593 296.123314,120.308589 L297.91961,115.432927 C301.094567,116.400614 303.599386,118.905433 304.567073,122.08039 L299.691411,123.876686 Z" transform="translate(-296 -57)"/>
</svg>
