<svg xmlns="http://www.w3.org/2000/svg"
	xmlns:xlink="http://www.w3.org/1999/xlink" version="1.1" x="0px" y="0px" viewBox="0 0 100 112.5" style="enable-background:new 0 0 100 90;" xml:space="preserve">
	<g>
		<g>
			<path d="M67.2,35.8L36.5,18v35.4L67.2,35.8z M90.8,60H9.4V11.4h81.4C90.8,11.4,90.8,60,90.8,60z M96.6,66.5V8.1c0,0,0-2.9-2.9-2.9    H6.4c0,0-2.9,0-2.9,2.9v58.3c0,0,0,2.9,2.9,2.9h38.8v6.4c-8.8,0.5-15.3,2.3-15.3,4.4c0,2.5,9,4.6,20.2,4.6c11.1,0,20.2-2,20.2-4.6    c0-2.1-6.5-3.9-15.3-4.4v-6.4h38.8C93.7,69.3,96.6,69.3,96.6,66.5"/>
		</g>
		<path d="M72.5,84.8H27.5c-0.8,0-1.5-0.7-1.5-1.5v-7.1c0-0.8,0.7-1.5,1.5-1.5h45.1c0.8,0,1.5,0.7,1.5,1.5v7.1   C74,84.1,73.3,84.8,72.5,84.8z"/>
	</g>
</svg>
