<?xml version="1.0" encoding="UTF-8" standalone="no"?>
<svg
   xmlns:dc="http://purl.org/dc/elements/1.1/"
   xmlns:cc="http://creativecommons.org/ns#"
   xmlns:rdf="http://www.w3.org/1999/02/22-rdf-syntax-ns#"
   xmlns:svg="http://www.w3.org/2000/svg"
   xmlns="http://www.w3.org/2000/svg"
   xmlns:sodipodi="http://sodipodi.sourceforge.net/DTD/sodipodi-0.dtd"
   xmlns:inkscape="http://www.inkscape.org/namespaces/inkscape"
   version="1.1"
   x="0px"
   y="0px"
   viewBox="0 0 100 112.5"
   style="enable-background:new 0 0 100 90;"
   xml:space="preserve"
   id="svg897"
   sodipodi:docname="tv.svg"
   inkscape:version="0.92.2 (5c3e80d, 2017-08-06)"><metadata
     id="metadata903"><rdf:RDF><cc:Work
         rdf:about=""><dc:format>image/svg+xml</dc:format><dc:type
           rdf:resource="http://purl.org/dc/dcmitype/StillImage" /></cc:Work></rdf:RDF></metadata><defs
     id="defs901" /><sodipodi:namedview
     pagecolor="#ffffff"
     bordercolor="#666666"
     borderopacity="1"
     objecttolerance="10"
     gridtolerance="10"
     guidetolerance="10"
     inkscape:pageopacity="0"
     inkscape:pageshadow="2"
     inkscape:window-width="1920"
     inkscape:window-height="1017"
     id="namedview899"
     showgrid="false"
     inkscape:zoom="7.2711111"
     inkscape:cx="50"
     inkscape:cy="56.25"
     inkscape:window-x="-8"
     inkscape:window-y="586"
     inkscape:window-maximized="1"
     inkscape:current-layer="svg897" /><g
     id="g895"
     transform="translate(-0.05,11.25)"><g
       id="g891"><path
         d="M 67.2,35.8 36.5,18 V 53.4 Z M 90.8,60 H 9.4 V 11.4 h 81.4 c 0,0 0,48.6 0,48.6 z m 5.8,6.5 V 8.1 c 0,0 0,-2.9 -2.9,-2.9 H 6.4 c 0,0 -2.9,0 -2.9,2.9 v 58.3 c 0,0 0,2.9 2.9,2.9 h 38.8 v 6.4 c -8.8,0.5 -15.3,2.3 -15.3,4.4 0,2.5 9,4.6 20.2,4.6 11.1,0 20.2,-2 20.2,-4.6 0,-2.1 -6.5,-3.9 -15.3,-4.4 v -6.4 h 38.8 c -0.1,0 2.8,0 2.8,-2.8"
         id="path889"
         inkscape:connector-curvature="0" /></g><path
       d="m 72.5,84.8 h -45 C 26.7,84.8 26,84.1 26,83.3 v -7.1 c 0,-0.8 0.7,-1.5 1.5,-1.5 h 45.1 c 0.8,0 1.5,0.7 1.5,1.5 v 7.1 c -0.1,0.8 -0.8,1.5 -1.6,1.5 z"
       id="path893"
       inkscape:connector-curvature="0" /></g></svg>